# xmcd
#
# Track frame offsets:
#	150
#	19227
#	40905
#	71228
#
# Disc length: 1794 seconds
#
# Revision: 0
# Processed by: cddbd v1.4PL0 Copyright (c) Steve Scherf et al.
# Submitted via: EasyCDDAExtractor 4.6.9.1
#
DISCID=33070004
DTITLE=P. Diddy - I Need A Girl - Single
DYEAR=2002
DGENRE=R&B
TTITLE0=I Need A Girl (Part One) feat. Usher and Loon
TTITLE1=I Need A Girl (Part Two) feat. Genuwine, Loon, Mario Winans and Tammy Ru
TTITLE1=ggeri
TTITLE2=I Need A Girl (To Bella) feat. Loon, Mario Winans, Lo and Jack
TTITLE3=I Need A Girl (Part One) Video
EXTD=
EXTT0=
EXTT1=
EXTT2=
EXTT3=
PLAYORDER=
